# xmcd
#
# Track frame offsets:
#	150
#	19400
#	37202
#	57427
#	76795
#	98950
#	120542
#	138855
#	156982
#	171725
#	190235
#	212112
#
# Disc length: 3040 seconds
#
# Revision: 1
# Processed by: cddbd v1.5.2PL0 Copyright (c) Steve Scherf et al.
# Submitted via: audiograbber 1.83.01
#
DISCID=ae0bde0c
DTITLE=Ware River Club - Cathedral
DYEAR=2004
DGENRE=Country Rock
TTITLE0=Long Way Down
TTITLE1=Ocean Size
TTITLE2=If I Accidently Take Your Life
TTITLE3=Broken Light
TTITLE4=Midnight
TTITLE5=Cathedral
TTITLE6=List
TTITLE7=The Wise
TTITLE8=The Deep End
TTITLE9=Bring It On
TTITLE10=Roll On Down
TTITLE11=Up Again
EXTD=
EXTT0=
EXTT1=
EXTT2=
EXTT3=
EXTT4=
EXTT5=
EXTT6=
EXTT7=
EXTT8=
EXTT9=
EXTT10=
EXTT11=
PLAYORDER=
